<?xml version="1.0" encoding="UTF-8"?>
<svg xmlns="http://www.w3.org/2000/svg" viewBox="0 0 400 800" width="400" height="800"><g opacity="0.24"><g transform="translate(102.91 181.93) rotate(321.4) scale(0.62)"><path d="M 0 0 Q -3 -2 -3 -6 Q 0 -10 3 -6 Q 3 -2 0 0 Z" fill="#f0c5d4" stroke="#c78aa6" stroke-width="0.4"></path></g><g transform="translate(287.19 166.86) rotate(308.19) scale(0.7)"><path d="M 0 0 Q -3 -2 -3 -6 Q 0 -10 3 -6 Q 3 -2 0 0 Z" fill="#e7b7c7" stroke="#c78aa6" stroke-width="0.4"></path></g><g transform="translate(351.68 63.41) rotate(248.87) scale(0.68)"><path d="M 0 0 Q -3 -2 -3 -6 Q 0 -10 3 -6 Q 3 -2 0 0 Z" fill="#f6dbe4" stroke="#c78aa6" stroke-width="0.4"></path></g><g transform="translate(190.25 234.54) rotate(276.57) scale(0.7)"><path d="M 0 0 Q -3 -2 -3 -6 Q 0 -10 3 -6 Q 3 -2 0 0 Z" fill="#dba7bc" stroke="#c78aa6" stroke-width="0.4"></path></g><g transform="translate(86.17 40.96) rotate(113.77) scale(1.12)"><path d="M 0 0 Q -3 -2 -3 -6 Q 0 -10 3 -6 Q 3 -2 0 0 Z" fill="#f0c5d4" stroke="#c78aa6" stroke-width="0.4"></path></g><g transform="translate(101.3 629.68) rotate(252.56) scale(0.71)"><path d="M 0 0 Q -3 -2 -3 -6 Q 0 -10 3 -6 Q 3 -2 0 0 Z" fill="#e7b7c7" stroke="#c78aa6" stroke-width="0.4"></path></g><g transform="translate(284.25 103.31) rotate(177.74) scale(0.78)"><path d="M 0 0 Q -3 -2 -3 -6 Q 0 -10 3 -6 Q 3 -2 0 0 Z" fill="#f6dbe4" stroke="#c78aa6" stroke-width="0.4"></path></g><g transform="translate(57.03 198.7) rotate(25.09) scale(1.01)"><path d="M 0 0 Q -3 -2 -3 -6 Q 0 -10 3 -6 Q 3 -2 0 0 Z" fill="#dba7bc" stroke="#c78aa6" stroke-width="0.4"></path></g><g transform="translate(366.25 176.26) rotate(308.44) scale(1.07)"><path d="M 0 0 Q -3 -2 -3 -6 Q 0 -10 3 -6 Q 3 -2 0 0 Z" fill="#f0c5d4" stroke="#c78aa6" stroke-width="0.4"></path></g><g transform="translate(131.71 207.91) rotate(266.12) scale(0.99)"><path d="M 0 0 Q -3 -2 -3 -6 Q 0 -10 3 -6 Q 3 -2 0 0 Z" fill="#e7b7c7" stroke="#c78aa6" stroke-width="0.4"></path></g><g transform="translate(19.29 756.66) rotate(232.49) scale(0.8)"><path d="M 0 0 Q -3 -2 -3 -6 Q 0 -10 3 -6 Q 3 -2 0 0 Z" fill="#f6dbe4" stroke="#c78aa6" stroke-width="0.4"></path></g><g transform="translate(287.41 212.21) rotate(203.87) scale(0.83)"><path d="M 0 0 Q -3 -2 -3 -6 Q 0 -10 3 -6 Q 3 -2 0 0 Z" fill="#dba7bc" stroke="#c78aa6" stroke-width="0.4"></path></g><g transform="translate(93.73 313.47) rotate(203.32) scale(1.09)"><path d="M 0 0 Q -3 -2 -3 -6 Q 0 -10 3 -6 Q 3 -2 0 0 Z" fill="#f0c5d4" stroke="#c78aa6" stroke-width="0.4"></path></g><g transform="translate(86.39 607.97) rotate(58.31) scale(1.06)"><path d="M 0 0 Q -3 -2 -3 -6 Q 0 -10 3 -6 Q 3 -2 0 0 Z" fill="#e7b7c7" stroke="#c78aa6" stroke-width="0.4"></path></g><g transform="translate(35.98 689.8) rotate(348.45) scale(0.96)"><path d="M 0 0 Q -3 -2 -3 -6 Q 0 -10 3 -6 Q 3 -2 0 0 Z" fill="#f6dbe4" stroke="#c78aa6" stroke-width="0.4"></path></g><g transform="translate(119.37 588.21) rotate(6.88) scale(1.01)"><path d="M 0 0 Q -3 -2 -3 -6 Q 0 -10 3 -6 Q 3 -2 0 0 Z" fill="#dba7bc" stroke="#c78aa6" stroke-width="0.4"></path></g><g transform="translate(25.03 335.97) rotate(140.94) scale(0.74)"><path d="M 0 0 Q -3 -2 -3 -6 Q 0 -10 3 -6 Q 3 -2 0 0 Z" fill="#f0c5d4" stroke="#c78aa6" stroke-width="0.4"></path></g><g transform="translate(311.93 369.97) rotate(52.05) scale(0.97)"><path d="M 0 0 Q -3 -2 -3 -6 Q 0 -10 3 -6 Q 3 -2 0 0 Z" fill="#e7b7c7" stroke="#c78aa6" stroke-width="0.4"></path></g><g transform="translate(55.42 709.51) rotate(123.86) scale(0.85)"><path d="M 0 0 Q -3 -2 -3 -6 Q 0 -10 3 -6 Q 3 -2 0 0 Z" fill="#f6dbe4" stroke="#c78aa6" stroke-width="0.4"></path></g><g transform="translate(101.91 680.6) rotate(288.21) scale(0.59)"><path d="M 0 0 Q -3 -2 -3 -6 Q 0 -10 3 -6 Q 3 -2 0 0 Z" fill="#dba7bc" stroke="#c78aa6" stroke-width="0.4"></path></g><g transform="translate(90.97 550.74) rotate(4.29) scale(1.06)"><path d="M 0 0 Q -3 -2 -3 -6 Q 0 -10 3 -6 Q 3 -2 0 0 Z" fill="#f0c5d4" stroke="#c78aa6" stroke-width="0.4"></path></g><g transform="translate(106.39 611.38) rotate(240.31) scale(0.99)"><path d="M 0 0 Q -3 -2 -3 -6 Q 0 -10 3 -6 Q 3 -2 0 0 Z" fill="#e7b7c7" stroke="#c78aa6" stroke-width="0.4"></path></g><g transform="translate(373.8 255.04) rotate(211.97) scale(0.94)"><path d="M 0 0 Q -3 -2 -3 -6 Q 0 -10 3 -6 Q 3 -2 0 0 Z" fill="#f6dbe4" stroke="#c78aa6" stroke-width="0.4"></path></g><g transform="translate(108.49 558.83) rotate(211.06) scale(0.89)"><path d="M 0 0 Q -3 -2 -3 -6 Q 0 -10 3 -6 Q 3 -2 0 0 Z" fill="#dba7bc" stroke="#c78aa6" stroke-width="0.4"></path></g><g transform="translate(157.83 395.06) rotate(353.09) scale(0.89)"><path d="M 0 0 Q -3 -2 -3 -6 Q 0 -10 3 -6 Q 3 -2 0 0 Z" fill="#f0c5d4" stroke="#c78aa6" stroke-width="0.4"></path></g><g transform="translate(301.35 60.91) rotate(99.81) scale(0.65)"><path d="M 0 0 Q -3 -2 -3 -6 Q 0 -10 3 -6 Q 3 -2 0 0 Z" fill="#e7b7c7" stroke="#c78aa6" stroke-width="0.4"></path></g><g transform="translate(341.22 681.15) rotate(159.09) scale(1.13)"><path d="M 0 0 Q -3 -2 -3 -6 Q 0 -10 3 -6 Q 3 -2 0 0 Z" fill="#f6dbe4" stroke="#c78aa6" stroke-width="0.4"></path></g><g transform="translate(291.72 588.51) rotate(233.68) scale(0.56)"><path d="M 0 0 Q -3 -2 -3 -6 Q 0 -10 3 -6 Q 3 -2 0 0 Z" fill="#dba7bc" stroke="#c78aa6" stroke-width="0.4"></path></g><g transform="translate(168.8 514.9) rotate(99.54) scale(0.78)"><path d="M 0 0 Q -3 -2 -3 -6 Q 0 -10 3 -6 Q 3 -2 0 0 Z" fill="#f0c5d4" stroke="#c78aa6" stroke-width="0.4"></path></g><g transform="translate(185.37 452.26) rotate(216.53) scale(0.64)"><path d="M 0 0 Q -3 -2 -3 -6 Q 0 -10 3 -6 Q 3 -2 0 0 Z" fill="#e7b7c7" stroke="#c78aa6" stroke-width="0.4"></path></g><g transform="translate(350.83 451.03) rotate(21.25) scale(0.76)"><path d="M 0 0 Q -3 -2 -3 -6 Q 0 -10 3 -6 Q 3 -2 0 0 Z" fill="#f6dbe4" stroke="#c78aa6" stroke-width="0.4"></path></g><g transform="translate(336.74 133.63) rotate(145.91) scale(1.03)"><path d="M 0 0 Q -3 -2 -3 -6 Q 0 -10 3 -6 Q 3 -2 0 0 Z" fill="#dba7bc" stroke="#c78aa6" stroke-width="0.4"></path></g><g transform="translate(273.46 768.72) rotate(308.88) scale(0.56)"><path d="M 0 0 Q -3 -2 -3 -6 Q 0 -10 3 -6 Q 3 -2 0 0 Z" fill="#f0c5d4" stroke="#c78aa6" stroke-width="0.4"></path></g><g transform="translate(303.01 21.07) rotate(63.29) scale(0.95)"><path d="M 0 0 Q -3 -2 -3 -6 Q 0 -10 3 -6 Q 3 -2 0 0 Z" fill="#e7b7c7" stroke="#c78aa6" stroke-width="0.4"></path></g><g transform="translate(129.36 314.51) rotate(57.51) scale(0.9)"><path d="M 0 0 Q -3 -2 -3 -6 Q 0 -10 3 -6 Q 3 -2 0 0 Z" fill="#f6dbe4" stroke="#c78aa6" stroke-width="0.4"></path></g><g transform="translate(277.4 119.94) rotate(240.09) scale(0.9)"><path d="M 0 0 Q -3 -2 -3 -6 Q 0 -10 3 -6 Q 3 -2 0 0 Z" fill="#dba7bc" stroke="#c78aa6" stroke-width="0.4"></path></g><g transform="translate(197.59 277.11) rotate(131.32) scale(1.14)"><path d="M 0 0 Q -3 -2 -3 -6 Q 0 -10 3 -6 Q 3 -2 0 0 Z" fill="#f0c5d4" stroke="#c78aa6" stroke-width="0.4"></path></g><g transform="translate(34.76 636.87) rotate(133.05) scale(0.72)"><path d="M 0 0 Q -3 -2 -3 -6 Q 0 -10 3 -6 Q 3 -2 0 0 Z" fill="#e7b7c7" stroke="#c78aa6" stroke-width="0.4"></path></g><g transform="translate(179.56 311.16) rotate(4.9) scale(0.73)"><ellipse cx="0" cy="-4" rx="2.2" ry="3.4" fill="#f0c5d4" stroke="#c78aa6" stroke-width="0.5" transform="rotate(0)"></ellipse><ellipse cx="0" cy="-4" rx="2.2" ry="3.4" fill="#f0c5d4" stroke="#c78aa6" stroke-width="0.5" transform="rotate(72)"></ellipse><ellipse cx="0" cy="-4" rx="2.2" ry="3.4" fill="#f0c5d4" stroke="#c78aa6" stroke-width="0.5" transform="rotate(144)"></ellipse><ellipse cx="0" cy="-4" rx="2.2" ry="3.4" fill="#f0c5d4" stroke="#c78aa6" stroke-width="0.5" transform="rotate(216)"></ellipse><ellipse cx="0" cy="-4" rx="2.2" ry="3.4" fill="#f0c5d4" stroke="#c78aa6" stroke-width="0.5" transform="rotate(288)"></ellipse><circle cx="0" cy="0" r="1.6" fill="#d97474"></circle></g><g transform="translate(252.49 327.14) rotate(-11.18) scale(0.9)"><ellipse cx="0" cy="-4" rx="2.2" ry="3.4" fill="#f0c5d4" stroke="#c78aa6" stroke-width="0.5" transform="rotate(0)"></ellipse><ellipse cx="0" cy="-4" rx="2.2" ry="3.4" fill="#f0c5d4" stroke="#c78aa6" stroke-width="0.5" transform="rotate(72)"></ellipse><ellipse cx="0" cy="-4" rx="2.2" ry="3.4" fill="#f0c5d4" stroke="#c78aa6" stroke-width="0.5" transform="rotate(144)"></ellipse><ellipse cx="0" cy="-4" rx="2.2" ry="3.4" fill="#f0c5d4" stroke="#c78aa6" stroke-width="0.5" transform="rotate(216)"></ellipse><ellipse cx="0" cy="-4" rx="2.2" ry="3.4" fill="#f0c5d4" stroke="#c78aa6" stroke-width="0.5" transform="rotate(288)"></ellipse><circle cx="0" cy="0" r="1.6" fill="#d97474"></circle></g><g transform="translate(121.33 605.01) rotate(19.32) scale(0.71)"><ellipse cx="0" cy="-4" rx="2.2" ry="3.4" fill="#f0c5d4" stroke="#c78aa6" stroke-width="0.5" transform="rotate(0)"></ellipse><ellipse cx="0" cy="-4" rx="2.2" ry="3.4" fill="#f0c5d4" stroke="#c78aa6" stroke-width="0.5" transform="rotate(72)"></ellipse><ellipse cx="0" cy="-4" rx="2.2" ry="3.4" fill="#f0c5d4" stroke="#c78aa6" stroke-width="0.5" transform="rotate(144)"></ellipse><ellipse cx="0" cy="-4" rx="2.2" ry="3.4" fill="#f0c5d4" stroke="#c78aa6" stroke-width="0.5" transform="rotate(216)"></ellipse><ellipse cx="0" cy="-4" rx="2.2" ry="3.4" fill="#f0c5d4" stroke="#c78aa6" stroke-width="0.5" transform="rotate(288)"></ellipse><circle cx="0" cy="0" r="1.6" fill="#d97474"></circle></g><g transform="translate(235.72 596.5) rotate(16.17) scale(1.18)"><ellipse cx="0" cy="-4" rx="2.2" ry="3.4" fill="#f0c5d4" stroke="#c78aa6" stroke-width="0.5" transform="rotate(0)"></ellipse><ellipse cx="0" cy="-4" rx="2.2" ry="3.4" fill="#f0c5d4" stroke="#c78aa6" stroke-width="0.5" transform="rotate(72)"></ellipse><ellipse cx="0" cy="-4" rx="2.2" ry="3.4" fill="#f0c5d4" stroke="#c78aa6" stroke-width="0.5" transform="rotate(144)"></ellipse><ellipse cx="0" cy="-4" rx="2.2" ry="3.4" fill="#f0c5d4" stroke="#c78aa6" stroke-width="0.5" transform="rotate(216)"></ellipse><ellipse cx="0" cy="-4" rx="2.2" ry="3.4" fill="#f0c5d4" stroke="#c78aa6" stroke-width="0.5" transform="rotate(288)"></ellipse><circle cx="0" cy="0" r="1.6" fill="#d97474"></circle></g><g transform="translate(44.78 552.55) rotate(10.49) scale(0.78)"><ellipse cx="0" cy="-4" rx="2.2" ry="3.4" fill="#f0c5d4" stroke="#c78aa6" stroke-width="0.5" transform="rotate(0)"></ellipse><ellipse cx="0" cy="-4" rx="2.2" ry="3.4" fill="#f0c5d4" stroke="#c78aa6" stroke-width="0.5" transform="rotate(72)"></ellipse><ellipse cx="0" cy="-4" rx="2.2" ry="3.4" fill="#f0c5d4" stroke="#c78aa6" stroke-width="0.5" transform="rotate(144)"></ellipse><ellipse cx="0" cy="-4" rx="2.2" ry="3.4" fill="#f0c5d4" stroke="#c78aa6" stroke-width="0.5" transform="rotate(216)"></ellipse><ellipse cx="0" cy="-4" rx="2.2" ry="3.4" fill="#f0c5d4" stroke="#c78aa6" stroke-width="0.5" transform="rotate(288)"></ellipse><circle cx="0" cy="0" r="1.6" fill="#d97474"></circle></g><g transform="translate(166.67 451.28) rotate(-7.96) scale(0.73)"><ellipse cx="0" cy="-4" rx="2.2" ry="3.4" fill="#f0c5d4" stroke="#c78aa6" stroke-width="0.5" transform="rotate(0)"></ellipse><ellipse cx="0" cy="-4" rx="2.2" ry="3.4" fill="#f0c5d4" stroke="#c78aa6" stroke-width="0.5" transform="rotate(72)"></ellipse><ellipse cx="0" cy="-4" rx="2.2" ry="3.4" fill="#f0c5d4" stroke="#c78aa6" stroke-width="0.5" transform="rotate(144)"></ellipse><ellipse cx="0" cy="-4" rx="2.2" ry="3.4" fill="#f0c5d4" stroke="#c78aa6" stroke-width="0.5" transform="rotate(216)"></ellipse><ellipse cx="0" cy="-4" rx="2.2" ry="3.4" fill="#f0c5d4" stroke="#c78aa6" stroke-width="0.5" transform="rotate(288)"></ellipse><circle cx="0" cy="0" r="1.6" fill="#d97474"></circle></g><g transform="translate(326.02 525.51) rotate(-0.33) scale(0.95)"><ellipse cx="0" cy="-4" rx="2.2" ry="3.4" fill="#f0c5d4" stroke="#c78aa6" stroke-width="0.5" transform="rotate(0)"></ellipse><ellipse cx="0" cy="-4" rx="2.2" ry="3.4" fill="#f0c5d4" stroke="#c78aa6" stroke-width="0.5" transform="rotate(72)"></ellipse><ellipse cx="0" cy="-4" rx="2.2" ry="3.4" fill="#f0c5d4" stroke="#c78aa6" stroke-width="0.5" transform="rotate(144)"></ellipse><ellipse cx="0" cy="-4" rx="2.2" ry="3.4" fill="#f0c5d4" stroke="#c78aa6" stroke-width="0.5" transform="rotate(216)"></ellipse><ellipse cx="0" cy="-4" rx="2.2" ry="3.4" fill="#f0c5d4" stroke="#c78aa6" stroke-width="0.5" transform="rotate(288)"></ellipse><circle cx="0" cy="0" r="1.6" fill="#d97474"></circle></g><g transform="translate(85.88 687.37) rotate(-6.33) scale(0.73)"><ellipse cx="0" cy="-4" rx="2.2" ry="3.4" fill="#f0c5d4" stroke="#c78aa6" stroke-width="0.5" transform="rotate(0)"></ellipse><ellipse cx="0" cy="-4" rx="2.2" ry="3.4" fill="#f0c5d4" stroke="#c78aa6" stroke-width="0.5" transform="rotate(72)"></ellipse><ellipse cx="0" cy="-4" rx="2.2" ry="3.4" fill="#f0c5d4" stroke="#c78aa6" stroke-width="0.5" transform="rotate(144)"></ellipse><ellipse cx="0" cy="-4" rx="2.2" ry="3.4" fill="#f0c5d4" stroke="#c78aa6" stroke-width="0.5" transform="rotate(216)"></ellipse><ellipse cx="0" cy="-4" rx="2.2" ry="3.4" fill="#f0c5d4" stroke="#c78aa6" stroke-width="0.5" transform="rotate(288)"></ellipse><circle cx="0" cy="0" r="1.6" fill="#d97474"></circle></g><g transform="translate(80.23 453.93) rotate(-6.85) scale(1.01)"><ellipse cx="0" cy="-4" rx="2.2" ry="3.4" fill="#f0c5d4" stroke="#c78aa6" stroke-width="0.5" transform="rotate(0)"></ellipse><ellipse cx="0" cy="-4" rx="2.2" ry="3.4" fill="#f0c5d4" stroke="#c78aa6" stroke-width="0.5" transform="rotate(72)"></ellipse><ellipse cx="0" cy="-4" rx="2.2" ry="3.4" fill="#f0c5d4" stroke="#c78aa6" stroke-width="0.5" transform="rotate(144)"></ellipse><ellipse cx="0" cy="-4" rx="2.2" ry="3.4" fill="#f0c5d4" stroke="#c78aa6" stroke-width="0.5" transform="rotate(216)"></ellipse><ellipse cx="0" cy="-4" rx="2.2" ry="3.4" fill="#f0c5d4" stroke="#c78aa6" stroke-width="0.5" transform="rotate(288)"></ellipse><circle cx="0" cy="0" r="1.6" fill="#d97474"></circle></g><g transform="translate(258.76 564.63) rotate(-17.48) scale(0.81)"><ellipse cx="0" cy="-4" rx="2.2" ry="3.4" fill="#f0c5d4" stroke="#c78aa6" stroke-width="0.5" transform="rotate(0)"></ellipse><ellipse cx="0" cy="-4" rx="2.2" ry="3.4" fill="#f0c5d4" stroke="#c78aa6" stroke-width="0.5" transform="rotate(72)"></ellipse><ellipse cx="0" cy="-4" rx="2.2" ry="3.4" fill="#f0c5d4" stroke="#c78aa6" stroke-width="0.5" transform="rotate(144)"></ellipse><ellipse cx="0" cy="-4" rx="2.2" ry="3.4" fill="#f0c5d4" stroke="#c78aa6" stroke-width="0.5" transform="rotate(216)"></ellipse><ellipse cx="0" cy="-4" rx="2.2" ry="3.4" fill="#f0c5d4" stroke="#c78aa6" stroke-width="0.5" transform="rotate(288)"></ellipse><circle cx="0" cy="0" r="1.6" fill="#d97474"></circle></g><g transform="translate(152.4 126.54) rotate(-6.07) scale(1.19)"><ellipse cx="0" cy="-4" rx="2.2" ry="3.4" fill="#f0c5d4" stroke="#c78aa6" stroke-width="0.5" transform="rotate(0)"></ellipse><ellipse cx="0" cy="-4" rx="2.2" ry="3.4" fill="#f0c5d4" stroke="#c78aa6" stroke-width="0.5" transform="rotate(72)"></ellipse><ellipse cx="0" cy="-4" rx="2.2" ry="3.4" fill="#f0c5d4" stroke="#c78aa6" stroke-width="0.5" transform="rotate(144)"></ellipse><ellipse cx="0" cy="-4" rx="2.2" ry="3.4" fill="#f0c5d4" stroke="#c78aa6" stroke-width="0.5" transform="rotate(216)"></ellipse><ellipse cx="0" cy="-4" rx="2.2" ry="3.4" fill="#f0c5d4" stroke="#c78aa6" stroke-width="0.5" transform="rotate(288)"></ellipse><circle cx="0" cy="0" r="1.6" fill="#d97474"></circle></g><g transform="translate(144.77 476.26) rotate(5.65) scale(1.34)" stroke="#9bb589" stroke-width="1.5" fill="none" stroke-linecap="round"><path d="M 0 0 L 0 -22"></path><path d="M -3 -7 L 3 -7" stroke-width="1.8"></path><path d="M -3 -14 L 3 -14" stroke-width="1.8"></path><path d="M -3 -21 L 3 -21" stroke-width="1.8"></path><path d="M 1 -16 Q 6 -18 9 -14"></path><path d="M -1 -9 Q -6 -10 -8 -7"></path></g><g transform="translate(376.69 533.39) rotate(-0.63) scale(0.97)" stroke="#9bb589" stroke-width="1.5" fill="none" stroke-linecap="round"><path d="M 0 0 L 0 -22"></path><path d="M -3 -7 L 3 -7" stroke-width="1.8"></path><path d="M -3 -14 L 3 -14" stroke-width="1.8"></path><path d="M -3 -21 L 3 -21" stroke-width="1.8"></path><path d="M 1 -16 Q 6 -18 9 -14"></path><path d="M -1 -9 Q -6 -10 -8 -7"></path></g><g transform="translate(39 628.17) rotate(5.16) scale(1.05)" stroke="#9bb589" stroke-width="1.5" fill="none" stroke-linecap="round"><path d="M 0 0 L 0 -22"></path><path d="M -3 -7 L 3 -7" stroke-width="1.8"></path><path d="M -3 -14 L 3 -14" stroke-width="1.8"></path><path d="M -3 -21 L 3 -21" stroke-width="1.8"></path><path d="M 1 -16 Q 6 -18 9 -14"></path><path d="M -1 -9 Q -6 -10 -8 -7"></path></g><g transform="translate(315.97 162.48) rotate(-1.96) scale(0.96)" stroke="#9bb589" stroke-width="1.5" fill="none" stroke-linecap="round"><path d="M 0 0 L 0 -22"></path><path d="M -3 -7 L 3 -7" stroke-width="1.8"></path><path d="M -3 -14 L 3 -14" stroke-width="1.8"></path><path d="M -3 -21 L 3 -21" stroke-width="1.8"></path><path d="M 1 -16 Q 6 -18 9 -14"></path><path d="M -1 -9 Q -6 -10 -8 -7"></path></g><g transform="translate(205.42 528) rotate(5.56) scale(1.24)" stroke="#9bb589" stroke-width="1.5" fill="none" stroke-linecap="round"><path d="M 0 0 L 0 -22"></path><path d="M -3 -7 L 3 -7" stroke-width="1.8"></path><path d="M -3 -14 L 3 -14" stroke-width="1.8"></path><path d="M -3 -21 L 3 -21" stroke-width="1.8"></path><path d="M 1 -16 Q 6 -18 9 -14"></path><path d="M -1 -9 Q -6 -10 -8 -7"></path></g><g transform="translate(115.78 304.15) rotate(0.45) scale(1.25)" stroke="#9bb589" stroke-width="1.5" fill="none" stroke-linecap="round"><path d="M 0 0 L 0 -22"></path><path d="M -3 -7 L 3 -7" stroke-width="1.8"></path><path d="M -3 -14 L 3 -14" stroke-width="1.8"></path><path d="M -3 -21 L 3 -21" stroke-width="1.8"></path><path d="M 1 -16 Q 6 -18 9 -14"></path><path d="M -1 -9 Q -6 -10 -8 -7"></path></g></g></svg>
